<?xml version="1.0" encoding="utf-8"?>
<!-- Generator: Adobe Illustrator 28.0.0, SVG Export Plug-In . SVG Version: 6.00 Build 0)  -->
<svg version="1.1" id="Capa_1" xmlns="http://www.w3.org/2000/svg" xmlns:xlink="http://www.w3.org/1999/xlink" x="0px" y="0px"
	 viewBox="0 0 1956 2201" style="enable-background:new 0 0 1956 2201;" xml:space="preserve">
<style type="text/css">
	.st0{fill:none;stroke:#00FFFF;stroke-width:10;stroke-miterlimit:10;}
</style>
<polygon class="st0" points="1726.08,1544.46 983.41,1973.25 240.74,1544.46 240.74,686.9 983.41,258.12 1726.08,686.9 "/>
<path class="st0" d="M1726.08,1519.38H251.84c5.68-9.79,11.36-19.58,17.03-29.37c238.18-410.63,476.36-821.26,714.53-1231.89
	C1230.97,678.54,1478.53,1098.96,1726.08,1519.38z"/>
<polygon class="st0" points="244.13,702.29 1718.37,701.7 987.31,1963.25 "/>
<circle class="st0" cx="977.51" cy="260.14" r="202.66"/>
<circle class="st0" cx="980.37" cy="1951.11" r="202.66"/>
<circle class="st0" cx="980.37" cy="1109.44" r="202.66"/>
<circle class="st0" cx="1344.17" cy="896.85" r="202.66"/>
<circle class="st0" cx="1344.17" cy="1320.24" r="202.66"/>
<circle class="st0" cx="980.37" cy="1533.56" r="202.66"/>
<circle class="st0" cx="608.46" cy="1320.24" r="202.66"/>
<circle class="st0" cx="608.46" cy="896.85" r="202.66"/>
<circle class="st0" cx="977.51" cy="688.69" r="202.66"/>
<circle class="st0" cx="1715" cy="688.69" r="202.66"/>
<circle class="st0" cx="1715" cy="1533.56" r="202.66"/>
<circle class="st0" cx="244.13" cy="1533.56" r="202.66"/>
<circle class="st0" cx="244.13" cy="688.69" r="202.66"/>
<polygon class="st0" points="1715,1519.38 253.16,714.69 977.51,1519.38 1694.16,701.71 265.41,1519.38 983.41,701.7 "/>
<polyline class="st0" points="294.66,1519.38 977.51,1393.88 1676.16,1519.38 "/>
<polyline class="st0" points="305.91,701.7 977.51,829.13 1715,688.69 "/>
<polygon class="st0" points="983.41,258.12 608.46,1320.24 977.51,1393.88 1358.31,1323.03 "/>
<line class="st0" x1="977.51" y1="1393.88" x2="977.51" y2="268.29"/>
<polyline class="st0" points="620.91,1296.88 983.41,701.7 1342.49,1320.24 620.91,1312.1 "/>
<polygon class="st0" points="977.51,1519.38 1342.49,1320.24 1344.17,896.85 1329.19,888.75 983.41,701.7 635.48,891.35 
	607.17,906.77 608.46,1320.24 "/>
<polygon class="st0" points="983.41,1933.88 1335.84,906.77 607.17,906.77 "/>
<polyline class="st0" points="960.66,1500.72 607.17,906.77 977.51,829.13 1335.84,906.77 988.96,1500.72 "/>
</svg>
