<?xml version="1.0" encoding="utf-8"?>
<!-- Generator: Adobe Illustrator 28.0.0, SVG Export Plug-In . SVG Version: 6.00 Build 0)  -->
<svg version="1.1" id="Capa_1" xmlns="http://www.w3.org/2000/svg" xmlns:xlink="http://www.w3.org/1999/xlink" x="0px" y="0px"
	 viewBox="0 0 1261 299" style="enable-background:new 0 0 1261 299;" xml:space="preserve">
<style type="text/css">
	.st0{fill:#FFFFFF;}
	.st1{stroke:#00FFFF;stroke-width:3;stroke-miterlimit:10;}
	.st2{fill:url(#SVGID_1_);}
	.st3{fill:url(#SVGID_00000033331715133989202420000005462525371989571765_);}
	.st4{fill:url(#SVGID_00000037662979608130720690000006833602902588844182_);}
</style>
<g>
	<rect x="44.81" y="75.65" class="st0" width="19.46" height="54.12"/>
	<path class="st0" d="M44.81,73.96h19.46V36.27h25.27c1-1.35,2.25-3.13,3.74-5.34c1.5-2.21,2.93-4.36,4.3-6.45
		c1.62-2.33,3.3-4.79,5.05-7.37H24.59c-1,1.35-2.25,3.1-3.74,5.25c-1.5,2.15-2.93,4.27-4.3,6.35c-1.62,2.34-3.37,4.85-5.24,7.55
		h33.5V73.96z"/>
</g>
<g>
	<polygon class="st0" points="422.5,76.1 422.5,17.25 403.04,17.25 403.15,76.1 	"/>
	<path class="st0" d="M422.5,113.35V77.79h-19.35l0.11,54.52h58.02c0.87-1.35,1.8-2.68,3.23-4.83c1.43-2.15,2.84-4.24,4.21-6.26
		c1.37-2.03,3.06-4.79,5.05-7.86H422.5z"/>
</g>
<g>
	<path class="st0" d="M246.74,75.55v54.12c2.49-5.7,5.46-12.24,8.89-19.62c3.43-7.38,6.95-15.03,10.57-22.97V75.55H246.74z"/>
	<path class="st0" d="M246.74,73.87h19.46V36.36h22.08c2.12-4.71,3.96-8.74,5.52-12.09c1.56-3.35,2.65-5.7,3.27-7.07h-70.55
		c-1,1.37-2.25,3.1-3.74,5.21c-1.5,2.11-2.93,4.22-4.3,6.32c-1.62,2.36-3.37,4.9-5.24,7.63h33.5V73.87z"/>
</g>
<path class="st0" d="M113.34,69.58c-0.03-0.6-0.04-1.19-0.04-1.8c0-5.33,1.03-10.42,3.09-15.25c2.06-4.84,4.9-9.05,8.51-12.65
	c3.62-3.6,7.8-6.45,12.54-8.56c4.74-2.11,9.85-3.16,15.35-3.16h2.43c5.36,0.37,10.29,1.71,14.78,4c4.49,2.3,8.39,5.27,11.7,8.93
	c3.3,3.66,5.9,7.78,7.77,12.37c1.87,4.59,2.81,9.3,2.81,14.13c0,0.67-0.02,1.33-0.05,1.98h19.47c0.02-0.6,0.04-1.19,0.04-1.8
	c0-7.69-1.5-15-4.49-21.95c-2.99-6.94-7.14-13.05-12.45-18.32c-5.3-5.27-11.54-9.45-18.71-12.55c-7.18-3.1-14.94-4.65-23.3-4.65
	c-0.75,0-1.5,0.03-2.25,0.09c-0.75,0.06-1.5,0.09-2.25,0.09c-7.49,0.62-14.54,2.51-21.15,5.67c-6.61,3.16-12.38,7.32-17.31,12.46
	c-4.93,5.15-8.83,11.07-11.7,17.76c-2.87,6.7-4.3,13.83-4.3,21.39c0,0.6,0.03,1.2,0.04,1.8H113.34z"/>
<path class="st0" d="M113.34,72.94c-0.03,0.6-0.04,1.19-0.04,1.8c0,5.33,1.03,10.42,3.09,15.25c2.06,4.84,4.9,9.05,8.51,12.65
	c3.62,3.6,7.8,6.45,12.54,8.56c4.74,2.11,9.85,3.16,15.35,3.16h2.43c5.36-0.37,10.29-1.71,14.78-4c4.49-2.3,8.39-5.27,11.7-8.93
	c3.3-3.66,5.9-7.78,7.77-12.37c1.87-4.59,2.81-9.3,2.81-14.13c0-0.67-0.02-1.33-0.05-1.98h19.47c0.02,0.6,0.04,1.19,0.04,1.8
	c0,7.69-1.5,15-4.49,21.95c-2.99,6.94-7.14,13.05-12.45,18.32c-5.3,5.27-11.54,9.45-18.71,12.55c-7.18,3.1-14.94,4.65-23.3,4.65
	c-0.75,0-1.5-0.03-2.25-0.09c-0.75-0.06-1.5-0.09-2.25-0.09c-7.49-0.62-14.54-2.51-21.15-5.67c-6.61-3.16-12.38-7.32-17.31-12.46
	c-4.93-5.15-8.83-11.07-11.7-17.76c-2.87-6.7-4.3-13.83-4.3-21.39c0-0.6,0.03-1.2,0.04-1.8H113.34z"/>
<path d="M134.84,227.33c8.59-0.12,20.36-0.23,35.3-0.35c13.3-0.12,24.62-4.79,33.98-14.03c9.35-9.24,13.79-20.87,13.33-34.91
	c-0.47-13.92-5.18-25-14.12-33.24c-8.94-8.25-20.8-12.73-34.81-12.73l-15.73,0.14l-7.42-18.37c5.65,0.12,5.24-0.24,19.48-0.35
	c22.12-0.12,39.69,5.59,52.69,17.1c13,11.52,19.62,27.57,19.86,48.15c0.12,8.3-1.06,16.05-3.53,23.24
	c-2.47,7.19-5.86,13.36-10.15,18.51c-4.3,5.15-9.21,9.62-14.74,13.42c-5.53,3.8-11.27,6.64-17.21,8.51
	c-5.94,1.87-11.89,2.89-17.83,3.07c-5.94,0.18-12.18,0.26-18.71,0.26c-6.53,0-11.56,0-15.09,0h-5.47L134.84,227.33z"/>
<path class="st1" d="M134.84,227.42c8.59-0.12,20.36-0.23,35.3-0.35c13.3-0.12,24.62-4.79,33.98-14.03
	c9.35-9.24,13.79-20.87,13.33-34.91c-0.47-13.92-5.18-25-14.12-33.24c-8.94-8.25-20.8-12.73-34.81-12.73l-16-1.22l-1.5-15.37
	c5.65,0.12-0.41-1.87,13.83-1.98c22.12-0.12,39.69,5.59,52.69,17.1c13,11.52,19.62,27.57,19.86,48.15
	c0.12,8.3-1.06,16.05-3.53,23.24c-2.47,7.19-5.86,13.36-10.15,18.51c-4.3,5.15-9.21,9.62-14.74,13.42
	c-5.53,3.8-11.27,6.64-17.21,8.51c-5.94,1.87-11.89,2.89-17.83,3.07c-5.94,0.18-12.18,0.26-18.71,0.26c-6.53,0-11.56,0-15.09,0
	h-5.47L134.84,227.42z"/>
<path class="st0" d="M320.45,177.12c1.24-2.74,3-6.49,5.3-11.28c2.56-5.33,6.02-12.77,10.39-22.32c4.24,9.3,7.98,17.45,11.23,24.46
	c1.49,3.21,2.9,6.26,4.24,9.14h21.32c-2.15-4.64-4.25-9.18-6.29-13.61c-3.74-8.12-7.05-15.31-9.92-21.57
	c-2.87-6.26-5.21-11.31-7.02-15.16c-1.81-3.84-2.78-5.95-2.9-6.32h-21.52c-0.87,1.86-2.62,5.61-5.24,11.25
	c-2.62,5.64-5.68,12.25-9.17,19.81c-3.49,7.56-7.2,15.59-11.14,24.08c-0.24,0.51-0.47,1.01-0.7,1.52H320.45z"/>
<path class="st0" d="M402.77,288.03l4.01-37.59c-3.74-8.18-11.71-25.51-15.89-34.57c-4.18-9.05-8.33-18.01-12.45-26.87
	c-1.61-3.46-3.17-6.84-4.72-10.18H352.4c1.29,2.77,2.52,5.4,3.67,7.86c2.56,5.46,4.87,10.41,6.92,14.88
	c2.06,4.46,4.05,8.83,5.99,13.11c1.93,4.28,3.96,8.68,6.08,13.21c2.12,4.52,4.49,9.64,7.11,15.34c2.62,5.7,5.58,12.18,8.89,19.43
	C394.38,269.9,398.28,278.36,402.77,288.03"/>
<path class="st0" d="M298.26,178.81c-3.39,7.31-6.64,14.32-9.74,20.97c-3.56,7.63-6.64,14.26-9.26,19.9
	c-2.62,5.64-12,24.77-12.88,26.63h21.52c4.61-9.92,15.87-33.11,18.49-38.81c2.62-5.7,4.61-10.07,5.99-13.11
	c1.37-3.04,2.31-5.08,2.81-6.14c0.5-1.05,0.87-1.86,1.12-2.42c0.25-0.56,0.62-1.3,1.12-2.23c0.45-0.84,1.21-2.44,2.27-4.79H298.26z"
	/>
<path class="st1" d="M229.96,245.5l106.44-223L442.4,246.31h-29.83l-76.4-160.65L259.09,245.5H229.96z"/>
<path d="M489.36,113.66c12,0.59,21.71,3.92,29.12,10c7.41,6.08,11.35,14.62,11.83,25.61c0.35,8.42-0.74,15.12-3.27,20.08
	c-2.53,4.97-6.27,9.38-11.21,13.24c-3.88,3.04-8.71,5.26-14.47,6.67l40.95,56.31l-24.71-0.18l-37.77-53.85
	c-1.3-0.12-2.59-0.18-3.88-0.18c0.12,18.13,0.18,36.2,0.18,54.2h-19.95c0-18.71,0.06-37.48,0.18-56.31h-0.18v-15.09
	c6.94,0,13.59,0,19.95,0c2.94,0,5.38-0.03,7.33-0.09c1.94-0.06,4.29-0.29,7.06-0.7c2.76-0.41,5.09-0.93,6.97-1.58
	c1.88-0.64,3.82-1.61,5.83-2.89c2-1.29,3.56-2.81,4.68-4.56c1.12-1.75,1.97-4,2.56-6.75c0.59-2.75,0.71-5.82,0.35-9.21
	c-0.24-2.69-1.35-5.29-3.35-7.81c-2-2.51-4.47-4.47-7.41-5.88c-4.24-1.75-12.24-2.57-24-2.46h-19.95v-18.94
	C468.53,113.19,479.59,113.31,489.36,113.66z"/>
<path class="st1" d="M489.11,114.03c12,0.59,21.71,3.92,29.12,10c7.41,6.08,11.35,14.62,11.83,25.61
	c0.35,8.42-0.74,15.12-3.27,20.08c-2.53,4.97-6.27,9.38-11.21,13.24c-3.88,3.04-8.71,5.26-14.47,6.67l40.95,56.31l-24.71-0.18
	l-37.77-53.85c-1.3-0.12-2.59-0.18-3.88-0.18c0.12,18.13,0.18,36.2,0.18,54.2h-19.95c0-18.71,0.06-37.48,0.18-56.31h-0.18v-15.09
	c6.94,0,13.59,0,19.95,0c2.94,0,5.38-0.03,7.33-0.09c1.94-0.06,4.29-0.29,7.06-0.7c2.76-0.41,5.09-0.93,6.97-1.58
	c1.88-0.64,3.82-1.61,5.83-2.89c2-1.29,3.56-2.81,4.68-4.56c1.12-1.75,1.97-4,2.56-6.75c0.59-2.75,0.71-5.82,0.35-9.21
	c-0.24-2.69-1.35-5.29-3.35-7.81c-2-2.51-4.47-4.47-7.41-5.88c-4.24-1.75-12.24-2.57-24-2.46l-22.1-1.07l-0.38-17.25
	C467.91,115.26,479.34,113.68,489.11,114.03z"/>
<path class="st1" d="M612.74,113.31l0.35,60.34l-20.3,20.52l-0.18-80.87H612.74z M592.62,245.57v-18.94l20.12-20.52v39.47H592.62z
	 M674.7,113.31l25.77,0.18l-57.72,58.24l61.6,73.85h-27.89l-44.66-53.68v-35.08L674.7,113.31z"/>
<path class="st1" d="M754.12,245.57l0.71-84.02l20.12,20.35v63.67H754.12z M754.48,135.41l0.18-31.93l118.26,120.51l0.35,32.1
	L754.48,135.41z M873.27,199.08l-21.36-22.63l0.88-63.32l20.12,0.35L873.27,199.08z"/>
<path class="st1" d="M997.18,113.31v18.59l-73.43,0.35v-18.77L997.18,113.31z M995.77,163.83v18.77h-51.72l-0.35,44.2h53.48v18.77
	l-73.43,0.18V164L995.77,163.83z"/>
<path class="st1" d="M1082.43,182.6l15-14.56c3.18,1.52,5.85,2.87,8.03,4.03c2.18,1.17,4.74,2.95,7.68,5.35
	c2.94,2.4,5.29,4.97,7.06,7.72c1.76,2.75,3.23,6.26,4.41,10.52c1.17,4.27,1.71,8.98,1.59,14.12c-0.12,3.28-0.71,6.67-1.76,10.17
	c-1.06,3.51-2.8,6.99-5.21,10.44c-2.41,3.45-5.29,6.49-8.65,9.12s-7.59,4.71-12.71,6.23c-5.12,1.52-10.74,2.16-16.86,1.93
	c-5.41-0.35-10.39-1.43-14.92-3.25c-4.53-1.81-8.09-3.86-10.68-6.14c-2.59-2.28-4.77-4.65-6.53-7.1c-1.77-2.46-2.94-4.41-3.53-5.88
	c-0.59-1.46-0.88-2.31-0.88-2.54l17.12-18.42c0,0.35,0.03,0.79,0.09,1.32c0.06,0.53,0.2,1.58,0.44,3.16
	c0.23,1.58,0.56,3.1,0.97,4.56c0.41,1.46,1.12,3.13,2.12,5c1,1.87,2.18,3.51,3.53,4.91c1.35,1.4,3.15,2.63,5.38,3.68
	c2.23,1.05,4.77,1.75,7.59,2.1c5.53,0.59,10.77-0.76,15.71-4.03c4.94-3.27,7.77-7.6,8.47-12.98c0.47-3.51,0.35-6.75-0.35-9.74
	c-0.71-2.98-1.71-5.38-3-7.19c-1.3-1.81-3.21-3.6-5.74-5.35c-2.53-1.75-4.77-3.07-6.71-3.95S1085.61,183.88,1082.43,182.6z
	 M1099.56,133.66c-0.24-0.35-0.62-0.76-1.15-1.23c-0.53-0.47-1.79-1.05-3.79-1.75c-2-0.7-4.24-1.05-6.71-1.05
	c-5.3,0.12-9.95,1.46-13.94,4.03c-4,2.57-6.12,6.67-6.35,12.28c-0.12,2.69,0.62,5.12,2.21,7.28c1.59,2.17,3.32,3.83,5.21,5
	l-13.77,13.86c-10.83-6.78-15.48-17.07-13.94-30.87c0.94-8.77,5.32-16.05,13.15-21.84c7.83-5.79,16.27-8.74,25.33-8.86
	c5.18,0,10.24,0.91,15.18,2.72c4.94,1.81,8.83,4.24,11.65,7.28L1099.56,133.66z"/>
<path class="st1" d="M1211.46,182.6l15-14.56c3.18,1.52,5.85,2.87,8.03,4.03c2.18,1.17,4.74,2.95,7.68,5.35
	c2.94,2.4,5.29,4.97,7.06,7.72c1.76,2.75,3.23,6.26,4.41,10.52c1.17,4.27,1.71,8.98,1.59,14.12c-0.12,3.28-0.71,6.67-1.76,10.17
	c-1.06,3.51-2.8,6.99-5.21,10.44c-2.41,3.45-5.29,6.49-8.65,9.12s-7.59,4.71-12.71,6.23c-5.12,1.52-10.74,2.16-16.86,1.93
	c-5.41-0.35-10.39-1.43-14.92-3.25c-4.53-1.81-8.09-3.86-10.68-6.14c-2.59-2.28-4.77-4.65-6.53-7.1c-1.77-2.46-2.94-4.41-3.53-5.88
	c-0.59-1.46-0.88-2.31-0.88-2.54l17.12-18.42c0,0.35,0.03,0.79,0.09,1.32c0.06,0.53,0.2,1.58,0.44,3.16
	c0.23,1.58,0.56,3.1,0.97,4.56c0.41,1.46,1.12,3.13,2.12,5c1,1.87,2.18,3.51,3.53,4.91c1.35,1.4,3.15,2.63,5.38,3.68
	c2.23,1.05,4.77,1.75,7.59,2.1c5.53,0.59,10.77-0.76,15.71-4.03c4.94-3.27,7.77-7.6,8.47-12.98c0.47-3.51,0.35-6.75-0.35-9.74
	c-0.71-2.98-1.71-5.38-3-7.19c-1.3-1.81-3.21-3.6-5.74-5.35c-2.53-1.75-4.77-3.07-6.71-3.95S1214.64,183.88,1211.46,182.6z
	 M1228.58,133.66c-0.24-0.35-0.62-0.76-1.15-1.23c-0.53-0.47-1.79-1.05-3.79-1.75c-2-0.7-4.24-1.05-6.71-1.05
	c-5.3,0.12-9.95,1.46-13.94,4.03c-4,2.57-6.12,6.67-6.35,12.28c-0.12,2.69,0.62,5.12,2.21,7.28c1.59,2.17,3.32,3.83,5.21,5
	l-13.77,13.86c-10.83-6.78-15.48-17.07-13.94-30.87c0.94-8.77,5.32-16.05,13.15-21.84c7.83-5.79,16.27-8.74,25.33-8.86
	c5.18,0,10.24,0.91,15.18,2.72c4.94,1.81,8.83,4.24,11.65,7.28L1228.58,133.66z"/>
<linearGradient id="SVGID_1_" gradientUnits="userSpaceOnUse" x1="144.3352" y1="122.8358" x2="171.5227" y2="122.8358">
	<stop  offset="0.3846" style="stop-color:#FFFFFF"/>
	<stop  offset="1" style="stop-color:#666666"/>
</linearGradient>
<polygon class="st2" points="171.52,132.12 152.79,132.2 144.34,131.56 145.37,113.84 165.9,113.47 "/>
<rect x="455.3" y="114.31" width="4.22" height="17.91"/>
<linearGradient id="SVGID_00000137121194793600664010000014369595684372449154_" gradientUnits="userSpaceOnUse" x1="427.2727" y1="123.1274" x2="467.0076" y2="123.1274">
	<stop  offset="0.3846" style="stop-color:#FFFFFF"/>
	<stop  offset="0.6692" style="stop-color:#000000"/>
	<stop  offset="0.847" style="stop-color:#000000;stop-opacity:0.8"/>
</linearGradient>
<rect x="427.27" y="113.29" style="fill:url(#SVGID_00000137121194793600664010000014369595684372449154_);" width="36.56" height="19.68"/>
<linearGradient id="SVGID_00000100372184757441503540000016346633627824565689_" gradientUnits="userSpaceOnUse" x1="148.0852" y1="123.528" x2="185.5787" y2="123.528">
	<stop  offset="0.3846" style="stop-color:#FFFFFF"/>
	<stop  offset="0.6796" style="stop-color:#000000"/>
	<stop  offset="0.855" style="stop-color:#000000;stop-opacity:0.8"/>
</linearGradient>
<path style="fill:url(#SVGID_00000100372184757441503540000016346633627824565689_);" d="M182.59,135.4
	c-1.57-0.48-1.73-0.37-3.66-0.75c-1.85-0.36-8.83-0.69-10.41-0.84c-4.78,0.09-6.25-0.52-9.09-0.38c-2.02,0.11-11.34-1.03-11.34-1.03
	l0.08-20.58c4.37-0.16,8.91-0.22,13.61-0.14c2.19,0.04,4.35,0.1,6.47,0.19c2.52,0.14,5.15,0.36,7.88,0.66
	c1.77,0.19,3.49,0.41,5.16,0.66C181.99,120.12,181.87,128.47,182.59,135.4z"/>
</svg>
