<?xml version="1.0" encoding="utf-8"?>
<!-- Generator: Adobe Illustrator 28.0.0, SVG Export Plug-In . SVG Version: 6.00 Build 0)  -->
<svg version="1.1" id="Capa_1" xmlns="http://www.w3.org/2000/svg" xmlns:xlink="http://www.w3.org/1999/xlink" x="0px" y="0px"
	 viewBox="0 0 505 937" style="enable-background:new 0 0 505 937;" xml:space="preserve">
<style type="text/css">
	.st0{fill:#00FFFF;}
	.st1{fill:#FFFFFF;}
	.st2{fill:none;stroke:#000000;stroke-width:0.5;stroke-dasharray:4,3;}
	.st3{fill:#010000;}
	.st4{fill:#1D1D1B;}
	.st5{opacity:0.92;}
</style>
<g>
	<g>
		<g>
			<polygon points="247.68,141.72 182.95,216.95 24.92,22.4 143.6,20.3 			"/>
			<polygon points="495.49,433.3 373.25,435.95 271.91,316.35 333.9,244.78 			"/>
			<polygon points="499.68,27.13 153.19,435.22 33.92,434.85 375.76,27.13 			"/>
		</g>
	</g>
	<g>
		<g>
			<polygon class="st0" points="234.97,138.82 174.72,213.68 12.22,19.5 130.9,17.4 			"/>
			<polygon class="st0" points="477,424.03 354.75,426.67 253.42,307.08 315.41,235.5 			"/>
			<polygon class="st0" points="481.18,17.86 134.69,425.94 15.42,425.58 357.26,17.86 			"/>
		</g>
	</g>
	<polygon class="st1" points="419.85,76.85 419.42,24.92 466.35,24.92 	"/>
	<polygon class="st1" points="79.48,366.59 78.09,417.59 36.15,416.87 	"/>
</g>
<line class="st2" x1="101.51" y1="402.76" x2="101.51" y2="382.87"/>
<g>
	<g>
		<g>
			<path class="st3" d="M58.46,651.51h48.6v57.92c0,10.21-1.89,18.93-5.66,26.16c-3.77,7.23-9.23,12.78-16.38,16.64
				c-7.15,3.86-15.78,5.79-25.9,5.79c-10.21,0-18.95-1.86-26.23-5.59c-7.28-3.73-12.85-9.12-16.71-16.18
				c-3.86-7.06-5.79-15.55-5.79-25.5V610.37c0-10.47,1.88-19.44,5.66-26.9c3.77-7.46,9.25-13.16,16.44-17.11
				c7.19-3.95,15.8-5.93,25.83-5.93c9.94,0,18.42,1.91,25.43,5.72c7.01,3.82,12.38,9.34,16.11,16.58
				c3.73,7.24,5.59,15.96,5.59,26.16v14.91H71.51V608.9c0-4.7-1.2-8.39-3.59-11.05c-2.4-2.66-5.59-3.99-9.59-3.99
				c-4.44,0-7.94,1.49-10.52,4.46c-2.58,2.98-3.86,6.99-3.86,12.05v100.39c0,4.17,1.35,7.5,4.06,9.99
				c2.71,2.49,6.41,3.73,11.12,3.73c4.88,0,8.7-1.31,11.45-3.93c2.75-2.62,4.13-6.23,4.13-10.85v-26.5H58.46V651.51z"/>
			<path class="st3" d="M113.45,756.03l46.2-193.59h23.17l46.2,193.59h-32.75l-25.03-126.89L146.2,756.03H113.45z M144.87,725.94
				v-30.89h52.73v30.89H144.87z"/>
			<path class="st3" d="M307.18,667.62l32.89-105.18h30.89v193.59h-29.43V620.88l2,8.52l-28.09,92.4h-16.51l-28.09-89.74l2.66-11.18
				v135.14H243.4V562.44h31.69L307.18,667.62z"/>
			<path class="st3" d="M394.65,756.03V562.44h33.02v193.59H394.65z M409.3,594.66v-32.22h71.37v32.22H409.3z M409.3,675.87v-32.09
				h64.71v32.09H409.3z M409.3,756.03v-32.22h71.37v32.22H409.3z"/>
		</g>
	</g>
	<g>
		<path class="st1" d="M49.73,645.04h48.6v57.92c0,10.21-1.89,18.93-5.66,26.16c-3.77,7.23-9.23,12.78-16.38,16.64
			c-7.15,3.86-15.78,5.79-25.9,5.79c-10.21,0-18.95-1.86-26.23-5.59c-7.28-3.73-12.85-9.12-16.71-16.18
			c-3.86-7.06-5.79-15.55-5.79-25.5V603.9c0-10.47,1.88-19.44,5.66-26.9c3.77-7.46,9.25-13.16,16.44-17.11
			c7.19-3.95,15.8-5.93,25.83-5.93c9.94,0,18.42,1.91,25.43,5.72c7.01,3.82,12.38,9.34,16.11,16.58c3.73,7.24,5.59,15.96,5.59,26.16
			v14.91H62.78v-14.91c0-4.7-1.2-8.39-3.59-11.05c-2.4-2.66-5.59-3.99-9.59-3.99c-4.44,0-7.94,1.49-10.52,4.46
			c-2.58,2.98-3.86,6.99-3.86,12.05v100.39c0,4.17,1.35,7.5,4.06,9.99c2.71,2.49,6.41,3.73,11.12,3.73c4.88,0,8.7-1.31,11.45-3.93
			c2.75-2.62,4.13-6.23,4.13-10.85v-26.5H49.73V645.04z"/>
		<path class="st1" d="M104.72,749.56l46.2-193.59h23.17l46.2,193.59h-32.75l-25.03-126.89l-25.03,126.89H104.72z M136.15,719.47
			v-30.89h52.73v30.89H136.15z"/>
		<path class="st1" d="M298.45,661.15l32.89-105.18h30.89v193.59H332.8V614.42l2,8.52l-28.09,92.4H290.2L262.1,625.6l2.66-11.18
			v135.14h-30.09V555.97h31.69L298.45,661.15z"/>
		<path class="st1" d="M385.93,749.56V555.97h33.02v193.59H385.93z M400.57,588.19v-32.22h71.37v32.22H400.57z M400.57,669.4v-32.09
			h64.71v32.09H400.57z M400.57,749.56v-32.22h71.37v32.22H400.57z"/>
	</g>
</g>
<g>
	<rect x="21.64" y="536.34" width="473.78" height="1.06"/>
	<rect x="16.34" y="535.28" class="st1" width="473.78" height="1.06"/>
</g>
<g>
	<g>
		<path d="M38.96,925.37c-6.91,0-12.81-1.28-17.71-3.83c-4.9-2.55-8.65-6.23-11.26-11.04c-2.61-4.8-3.92-10.63-3.92-17.48v-7.03
			l22.26-0.18v7.03c0,3.3,0.93,5.9,2.79,7.79s4.45,2.84,7.75,2.84c3.25,0,5.75-0.93,7.53-2.79c1.77-1.86,2.66-4.42,2.66-7.66v-11.45
			c0-2.7-0.8-4.97-2.39-6.8c-1.59-1.83-3.71-3.48-6.35-4.96c-2.64-1.47-5.5-2.96-8.56-4.46c-2.94-1.5-5.93-3.18-8.97-5.05
			c-3.03-1.86-5.8-4.1-8.29-6.71c-2.49-2.61-4.51-5.81-6.04-9.6s-2.3-8.35-2.3-13.7v-6.76c0-10.09,2.84-17.93,8.52-23.52
			s13.68-8.38,24.02-8.38c10.03,0,17.87,2.82,23.52,8.47c5.65,5.65,8.47,13.58,8.47,23.79v7.39l-22.26,0.27v-7.48
			c0-3.36-0.86-5.99-2.57-7.88c-1.71-1.89-4.1-2.84-7.16-2.84c-3.24,0-5.75,0.86-7.53,2.57c-1.77,1.71-2.66,4.07-2.66,7.07v8.74
			c0,3.06,0.92,5.57,2.75,7.53c1.83,1.95,4.2,3.66,7.12,5.14c2.91,1.47,5.99,3.08,9.24,4.82c2.82,1.44,5.63,3.01,8.43,4.69
			c2.79,1.68,5.35,3.73,7.66,6.13c2.31,2.4,4.17,5.38,5.59,8.92c1.41,3.54,2.12,7.93,2.12,13.16v10.9c0,10.21-2.84,18.16-8.52,23.84
			C57.21,922.53,49.23,925.37,38.96,925.37z"/>
		<path d="M78.43,814.44v-21.45h65.61v21.45H78.43z M100.06,924.02V803.98h22.35v120.04H100.06z"/>
		<path d="M180.9,925.37c-9.79,0-17.45-2.9-22.98-8.7c-5.53-5.8-8.29-13.92-8.29-24.38v-99.31h22.44v99.94
			c0,3.19,0.78,5.66,2.34,7.44c1.56,1.77,3.72,2.66,6.49,2.66c2.82,0,5.03-0.89,6.62-2.66s2.39-4.25,2.39-7.44v-99.94h22.44v99.31
			c0,10.45-2.78,18.58-8.34,24.38C198.45,922.47,190.75,925.37,180.9,925.37z"/>
		<path d="M225.14,924.02V792.99h22.35v131.03H225.14z M240.01,924.02v-21.45h16.76c3,0,5.32-0.92,6.94-2.75s2.43-4.4,2.43-7.71
			v-67.23c0-3.36-0.81-5.95-2.43-7.75c-1.62-1.8-3.94-2.7-6.94-2.7h-16.76v-21.45h19.01c9.43,0,16.75,2.57,21.94,7.71
			c5.2,5.14,7.79,12.36,7.79,21.67v72.27c0,6.19-1.17,11.47-3.51,15.86c-2.34,4.39-5.74,7.74-10.18,10.05
			c-4.45,2.31-9.82,3.47-16.13,3.47H240.01z"/>
		<path d="M323.55,792.99v131.03H301.2V792.99H323.55z"/>
		<path d="M371.31,925.37c-7.03,0-13.05-1.22-18.07-3.65c-5.02-2.43-8.85-5.95-11.49-10.54c-2.64-4.6-3.96-10.14-3.96-16.62v-72.09
			c0-6.55,1.32-12.12,3.96-16.72c2.64-4.6,6.47-8.1,11.49-10.5c5.02-2.4,11.04-3.6,18.07-3.6s13.05,1.2,18.07,3.6
			c5.02,2.4,8.84,5.9,11.49,10.5c2.64,4.6,3.97,10.17,3.97,16.72v72.09c0,6.49-1.32,12.03-3.97,16.62
			c-2.64,4.6-6.47,8.11-11.49,10.54C384.37,924.15,378.34,925.37,371.31,925.37z M371.31,903.02c3.48,0,6.17-0.99,8.07-2.97
			c1.89-1.98,2.84-4.78,2.84-8.38v-66.51c0-3.54-0.95-6.31-2.84-8.29c-1.89-1.98-4.58-2.97-8.07-2.97c-3.42,0-6.08,0.99-7.98,2.97
			c-1.89,1.98-2.84,4.75-2.84,8.29v66.51c0,3.61,0.95,6.4,2.84,8.38C365.23,902.03,367.89,903.02,371.31,903.02z"/>
		<path d="M448.37,925.37c-6.91,0-12.81-1.28-17.71-3.83c-4.9-2.55-8.65-6.23-11.26-11.04c-2.61-4.8-3.92-10.63-3.92-17.48v-7.03
			l22.26-0.18v7.03c0,3.3,0.93,5.9,2.79,7.79s4.45,2.84,7.75,2.84c3.25,0,5.75-0.93,7.53-2.79c1.77-1.86,2.66-4.42,2.66-7.66v-11.45
			c0-2.7-0.8-4.97-2.39-6.8c-1.59-1.83-3.71-3.48-6.35-4.96c-2.64-1.47-5.5-2.96-8.56-4.46c-2.94-1.5-5.93-3.18-8.97-5.05
			c-3.03-1.86-5.8-4.1-8.29-6.71c-2.49-2.61-4.51-5.81-6.04-9.6s-2.3-8.35-2.3-13.7v-6.76c0-10.09,2.84-17.93,8.52-23.52
			s13.68-8.38,24.02-8.38c10.03,0,17.87,2.82,23.52,8.47c5.65,5.65,8.47,13.58,8.47,23.79v7.39l-22.26,0.27v-7.48
			c0-3.36-0.86-5.99-2.57-7.88c-1.71-1.89-4.1-2.84-7.16-2.84c-3.24,0-5.75,0.86-7.53,2.57c-1.77,1.71-2.66,4.07-2.66,7.07v8.74
			c0,3.06,0.92,5.57,2.75,7.53c1.83,1.95,4.2,3.66,7.12,5.14c2.91,1.47,5.99,3.08,9.24,4.82c2.82,1.44,5.63,3.01,8.43,4.69
			c2.79,1.68,5.35,3.73,7.66,6.13c2.31,2.4,4.17,5.38,5.59,8.92c1.41,3.54,2.12,7.93,2.12,13.16v10.9c0,10.21-2.84,18.16-8.52,23.84
			C466.61,922.53,458.64,925.37,448.37,925.37z"/>
	</g>
	<g>
		<path class="st1" d="M30.68,914.69c-6.91,0-12.81-1.28-17.71-3.83c-4.9-2.55-8.65-6.23-11.26-11.04
			c-2.61-4.8-3.92-10.63-3.92-17.48v-7.03l22.26-0.18v7.03c0,3.3,0.93,5.9,2.79,7.79s4.45,2.84,7.75,2.84
			c3.25,0,5.75-0.93,7.53-2.79c1.77-1.86,2.66-4.42,2.66-7.66v-11.45c0-2.7-0.8-4.97-2.39-6.8c-1.59-1.83-3.71-3.48-6.35-4.96
			c-2.64-1.47-5.5-2.96-8.56-4.46c-2.94-1.5-5.93-3.18-8.97-5.05c-3.03-1.86-5.8-4.1-8.29-6.71c-2.49-2.61-4.51-5.81-6.04-9.6
			s-2.3-8.35-2.3-13.7v-6.76c0-10.09,2.84-17.93,8.52-23.52s13.68-8.38,24.02-8.38c10.03,0,17.87,2.82,23.52,8.47
			c5.65,5.65,8.47,13.58,8.47,23.79v7.39l-22.26,0.27v-7.48c0-3.36-0.86-5.99-2.57-7.88c-1.71-1.89-4.1-2.84-7.16-2.84
			c-3.24,0-5.75,0.86-7.53,2.57c-1.77,1.71-2.66,4.07-2.66,7.07v8.74c0,3.06,0.92,5.57,2.75,7.53c1.83,1.95,4.2,3.66,7.12,5.14
			c2.91,1.47,5.99,3.08,9.24,4.82c2.82,1.44,5.63,3.01,8.43,4.69c2.79,1.68,5.35,3.73,7.66,6.13c2.31,2.4,4.17,5.38,5.59,8.92
			c1.41,3.54,2.12,7.93,2.12,13.16v10.9c0,10.21-2.84,18.16-8.52,23.84C48.93,911.85,40.95,914.69,30.68,914.69z"/>
		<path class="st1" d="M70.15,803.76v-21.45h65.61v21.45H70.15z M91.78,913.34V793.3h22.35v120.04H91.78z"/>
		<path class="st1" d="M172.62,914.69c-9.79,0-17.45-2.9-22.98-8.7c-5.53-5.8-8.29-13.92-8.29-24.38v-99.31h22.44v99.94
			c0,3.19,0.78,5.66,2.34,7.44c1.56,1.77,3.72,2.66,6.49,2.66c2.82,0,5.03-0.89,6.62-2.66s2.39-4.25,2.39-7.44v-99.94h22.44v99.31
			c0,10.45-2.78,18.58-8.34,24.38C190.17,911.79,182.47,914.69,172.62,914.69z"/>
		<path class="st1" d="M216.86,913.34V782.31h22.35v131.03H216.86z M231.73,913.34v-21.45h16.76c3,0,5.32-0.92,6.94-2.75
			s2.43-4.4,2.43-7.71v-67.23c0-3.36-0.81-5.95-2.43-7.75c-1.62-1.8-3.94-2.7-6.94-2.7h-16.76v-21.45h19.01
			c9.43,0,16.75,2.57,21.94,7.71c5.2,5.14,7.79,12.36,7.79,21.67v72.27c0,6.19-1.17,11.47-3.51,15.86
			c-2.34,4.39-5.74,7.74-10.18,10.05c-4.45,2.31-9.82,3.47-16.13,3.47H231.73z"/>
		<path class="st1" d="M315.27,782.31v131.03h-22.35V782.31H315.27z"/>
		<path class="st1" d="M363.03,914.69c-7.03,0-13.05-1.22-18.07-3.65c-5.02-2.43-8.85-5.95-11.49-10.54
			c-2.64-4.6-3.96-10.14-3.96-16.62v-72.09c0-6.55,1.32-12.12,3.96-16.72c2.64-4.6,6.47-8.1,11.49-10.5
			c5.02-2.4,11.04-3.6,18.07-3.6s13.05,1.2,18.07,3.6c5.02,2.4,8.84,5.9,11.49,10.5c2.64,4.6,3.97,10.17,3.97,16.72v72.09
			c0,6.49-1.32,12.03-3.97,16.62c-2.64,4.6-6.47,8.11-11.49,10.54C376.08,913.47,370.06,914.69,363.03,914.69z M363.03,892.34
			c3.48,0,6.17-0.99,8.07-2.97c1.89-1.98,2.84-4.78,2.84-8.38v-66.51c0-3.54-0.95-6.31-2.84-8.29c-1.89-1.98-4.58-2.97-8.07-2.97
			c-3.42,0-6.08,0.99-7.98,2.97c-1.89,1.98-2.84,4.75-2.84,8.29v66.51c0,3.61,0.95,6.4,2.84,8.38
			C356.95,891.35,359.61,892.34,363.03,892.34z"/>
		<path class="st1" d="M440.08,914.69c-6.91,0-12.81-1.28-17.71-3.83c-4.9-2.55-8.65-6.23-11.26-11.04
			c-2.61-4.8-3.92-10.63-3.92-17.48v-7.03l22.26-0.18v7.03c0,3.3,0.93,5.9,2.79,7.79s4.45,2.84,7.75,2.84
			c3.25,0,5.75-0.93,7.53-2.79c1.77-1.86,2.66-4.42,2.66-7.66v-11.45c0-2.7-0.8-4.97-2.39-6.8c-1.59-1.83-3.71-3.48-6.35-4.96
			c-2.64-1.47-5.5-2.96-8.56-4.46c-2.94-1.5-5.93-3.18-8.97-5.05c-3.03-1.86-5.8-4.1-8.29-6.71c-2.49-2.61-4.51-5.81-6.04-9.6
			s-2.3-8.35-2.3-13.7v-6.76c0-10.09,2.84-17.93,8.52-23.52s13.68-8.38,24.02-8.38c10.03,0,17.87,2.82,23.52,8.47
			c5.65,5.65,8.47,13.58,8.47,23.79v7.39l-22.26,0.27v-7.48c0-3.36-0.86-5.99-2.57-7.88c-1.71-1.89-4.1-2.84-7.16-2.84
			c-3.24,0-5.75,0.86-7.53,2.57c-1.77,1.71-2.66,4.07-2.66,7.07v8.74c0,3.06,0.92,5.57,2.75,7.53c1.83,1.95,4.2,3.66,7.12,5.14
			c2.91,1.47,5.99,3.08,9.24,4.82c2.82,1.44,5.63,3.01,8.43,4.69c2.79,1.68,5.35,3.73,7.66,6.13c2.31,2.4,4.17,5.38,5.59,8.92
			c1.41,3.54,2.12,7.93,2.12,13.16v10.9c0,10.21-2.84,18.16-8.52,23.84C458.33,911.85,450.36,914.69,440.08,914.69z"/>
	</g>
</g>
<g>
	<path class="st4" d="M474.21,461.39v1.45h-7.27v-1.45H474.21z M471.53,461.39v8.85h-1.88v-8.85H471.53z M485.54,461.39v8.85h-1.85
		v-4.24l0.19-2.33h-0.03l-0.24,0.72l-2.2,5.85h-1.34l-2.23-5.85l-0.24-0.72h-0.03l0.19,2.33v4.24h-1.85v-8.85h2.36l1.82,4.83
		l0.62,1.72h0.05l0.59-1.72l1.85-4.83H485.54z"/>
	<path class="st1" d="M472.99,460.25v1.45h-7.27v-1.45H472.99z M470.31,460.25v8.85h-1.88v-8.85H470.31z M484.31,460.25v8.85h-1.85
		v-4.24l0.19-2.33h-0.03l-0.24,0.72l-2.2,5.85h-1.34l-2.23-5.85l-0.24-0.72h-0.03l0.19,2.33v4.24h-1.85v-8.85h2.36l1.82,4.83
		l0.62,1.72h0.05l0.59-1.72l1.85-4.83H484.31z"/>
	<g class="st5">
		<g>
			<path d="M17.56,525.35l30.07-33.39l-13.96-31.04h21.67l6.44,17.08l13.28-17.08h22.36l-28.51,31.92l15.23,32.51H62.46l-6.74-17.57
				l-14.16,17.57H17.56z"/>
			<path d="M113.71,510.42h31.34l-3.51,14.94H90.28l14.94-64.43h20.01L113.71,510.42z"/>
			<path d="M149.83,525.35l14.94-64.43H217l-3.42,14.94h-32.31l-2.44,10.45h25.48l-3.12,13.86H175.7l-2.34,10.25h33l-3.51,14.94
				H149.83z"/>
			<path d="M210.94,525.35l14.94-64.43h29.97c6.9,0,12.36,1.64,16.4,4.93c4.04,3.29,6.05,7.86,6.05,13.72
				c0,5.01-1.17,9.22-3.51,12.64s-5.55,6.02-9.62,7.81c-4.07,1.79-8.74,2.72-14.01,2.78l-3.22,0.98h-13.76l3.03-13.57h11.13
				c2.21,0,4.08-0.36,5.61-1.07c1.53-0.71,2.72-1.71,3.56-2.98c0.85-1.27,1.27-2.75,1.27-4.44c0-2.21-0.75-3.81-2.25-4.78
				c-1.5-0.98-3.38-1.46-5.66-1.46h-8.79l-11.52,49.88H210.94z M252.92,525.35l-10.45-28.12l17.77-2.83l12.59,30.95H252.92z"/>
			<path d="M313.35,460.92l-14.94,64.43H278.4l14.94-64.43H313.35z"/>
			<path d="M344.29,526.33c-5.53,0-10.53-1.12-14.99-3.37c-4.46-2.25-7.97-5.48-10.54-9.71c-2.57-4.23-3.86-9.34-3.86-15.33
				c0-5.47,0.8-10.53,2.39-15.18c1.59-4.65,3.91-8.69,6.93-12.11s6.74-6.05,11.13-7.91s9.35-2.78,14.89-2.78
				c5.6,0,10.61,1.12,15.03,3.37c4.43,2.25,7.92,5.48,10.5,9.71c2.57,4.23,3.86,9.34,3.86,15.33c0,5.47-0.78,10.51-2.34,15.13
				c-1.56,4.62-3.86,8.66-6.88,12.11c-3.03,3.45-6.74,6.1-11.13,7.96C354.88,525.4,349.89,526.33,344.29,526.33z M344.78,511
				c2.54,0,4.73-0.75,6.59-2.25c1.86-1.5,3.4-3.46,4.64-5.91c1.24-2.44,2.16-5.09,2.78-7.96c0.62-2.86,0.93-5.63,0.93-8.3
				c0-2.47-0.38-4.55-1.12-6.25c-0.75-1.69-1.86-2.96-3.32-3.81c-1.46-0.84-3.3-1.27-5.52-1.27c-2.54,0-4.73,0.75-6.59,2.25
				c-1.85,1.5-3.4,3.47-4.64,5.91c-1.24,2.44-2.17,5.09-2.78,7.96c-0.62,2.87-0.93,5.63-0.93,8.3c0,2.41,0.37,4.47,1.12,6.2
				c0.75,1.72,1.87,3.01,3.37,3.86C340.81,510.58,342.63,511,344.78,511z"/>
			<path d="M381.19,525.35l14.94-64.43h20.99l10.06,32.7l2.64,9.76h0.2l2.83-14.55l6.44-27.92h17.47l-14.94,64.43h-20.7
				l-10.45-31.92l-2.73-9.76h-0.19l-2.64,13.76l-6.44,27.92H381.19z"/>
		</g>
	</g>
	<g>
		<g>
			<path class="st1" d="M8.48,521.32l30.07-33.39l-13.96-31.04h21.67l6.44,17.08l13.28-17.08h22.36l-28.51,31.92l15.23,32.51H53.39
				l-6.74-17.57l-14.16,17.57H8.48z"/>
			<path class="st1" d="M104.64,506.38h31.34l-3.51,14.94H81.21l14.94-64.43h20.01L104.64,506.38z"/>
			<path class="st1" d="M140.75,521.32l14.94-64.43h52.23l-3.42,14.94h-32.31l-2.44,10.45h25.48l-3.12,13.86h-25.48l-2.34,10.25h33
				l-3.51,14.94H140.75z"/>
			<path class="st1" d="M201.87,521.32l14.94-64.43h29.97c6.9,0,12.36,1.64,16.4,4.93c4.04,3.29,6.05,7.86,6.05,13.72
				c0,5.01-1.17,9.22-3.51,12.64s-5.55,6.02-9.62,7.81c-4.07,1.79-8.74,2.72-14.01,2.78l-3.22,0.98H225.1l3.03-13.57h11.13
				c2.21,0,4.08-0.36,5.61-1.07c1.53-0.71,2.72-1.71,3.56-2.98c0.85-1.27,1.27-2.75,1.27-4.44c0-2.21-0.75-3.81-2.25-4.78
				c-1.5-0.98-3.38-1.46-5.66-1.46h-8.79l-11.52,49.89H201.87z M243.84,521.32L233.4,493.2l17.77-2.83l12.59,30.95H243.84z"/>
			<path class="st1" d="M304.27,456.89l-14.94,64.43h-20.01l14.94-64.43H304.27z"/>
			<path class="st1" d="M335.22,522.29c-5.53,0-10.53-1.12-14.99-3.37c-4.46-2.24-7.97-5.48-10.54-9.71
				c-2.57-4.23-3.86-9.34-3.86-15.33c0-5.47,0.8-10.53,2.39-15.18c1.59-4.65,3.91-8.69,6.93-12.11s6.74-6.05,11.13-7.91
				s9.35-2.78,14.89-2.78c5.6,0,10.61,1.12,15.03,3.37c4.43,2.25,7.92,5.48,10.5,9.71c2.57,4.23,3.86,9.34,3.86,15.33
				c0,5.47-0.78,10.51-2.34,15.13c-1.56,4.62-3.86,8.66-6.88,12.11c-3.03,3.45-6.74,6.1-11.13,7.96
				C345.81,521.37,340.81,522.29,335.22,522.29z M335.7,506.97c2.54,0,4.73-0.75,6.59-2.24c1.86-1.5,3.4-3.47,4.64-5.91
				c1.24-2.44,2.16-5.09,2.78-7.96c0.62-2.86,0.93-5.63,0.93-8.3c0-2.47-0.38-4.55-1.12-6.25c-0.75-1.69-1.86-2.96-3.32-3.81
				c-1.46-0.84-3.3-1.27-5.52-1.27c-2.54,0-4.73,0.75-6.59,2.25c-1.85,1.5-3.4,3.47-4.64,5.91c-1.24,2.44-2.17,5.09-2.78,7.96
				c-0.62,2.87-0.93,5.63-0.93,8.3c0,2.41,0.37,4.48,1.12,6.2c0.75,1.73,1.87,3.01,3.37,3.86
				C331.73,506.54,333.56,506.97,335.7,506.97z"/>
			<path class="st1" d="M372.12,521.32l14.94-64.43h20.99l10.06,32.7l2.64,9.76h0.2l2.83-14.55l6.44-27.92h17.47l-14.94,64.43h-20.7
				L401.6,489.4l-2.73-9.76h-0.19l-2.64,13.76l-6.44,27.92H372.12z"/>
		</g>
	</g>
</g>
</svg>
